<?xml version="1.0" encoding="UTF-8"?>
<svg version="1.1" xmlns="http://www.w3.org/2000/svg" width="384" height="99">
<path d="M0 0 C3.03924434 3.06238678 3.37800807 5.39535418 3.38818359 9.62304688 C3.39764008 10.75101685 3.40709656 11.87898682 3.4168396 13.0411377 C3.41076691 14.25474976 3.40469421 15.46836182 3.3984375 16.71875 C3.40130768 17.96877808 3.40417786 19.21880615 3.40713501 20.50671387 C3.40917667 23.14981251 3.40514883 25.7920789 3.39111328 28.43505859 C3.37402112 31.81798306 3.38386578 35.20019346 3.40183067 38.58309174 C3.41529505 41.81583657 3.4058602 45.04849584 3.3984375 48.28125 C3.40451019 49.49486206 3.41058289 50.70847412 3.4168396 51.9588623 C3.40265488 53.65081726 3.40265488 53.65081726 3.38818359 55.37695312 C3.38579681 56.36860474 3.38341003 57.36025635 3.38095093 58.38195801 C2.93648596 61.43649303 2.16366798 62.81985668 0 65 C-3.05978303 65.44621836 -5.01744669 65.64407159 -7.65551758 63.91479492 C-9.70163303 61.00074308 -9.4397687 58.45133361 -9.51171875 54.92578125 C-9.52966995 54.2419487 -9.54762115 53.55811615 -9.56611633 52.8535614 C-9.62022075 50.67327 -9.6541134 48.49319744 -9.6875 46.3125 C-9.7206732 44.83265183 -9.75516287 43.35283255 -9.79101562 41.87304688 C-9.87594524 38.24890831 -9.94275635 34.62469348 -10 31 C-10.34909424 31.4844458 -10.69818848 31.9688916 -11.05786133 32.46801758 C-13.9619478 34.75879603 -16.41597904 34.4370608 -20.07421875 34.51171875 C-20.7580513 34.52966995 -21.44188385 34.54762115 -22.1464386 34.56611633 C-24.32673 34.62022075 -26.50680256 34.6541134 -28.6875 34.6875 C-30.16734817 34.7206732 -31.64716745 34.75516287 -33.12695312 34.79101562 C-36.75109169 34.87594524 -40.37530652 34.94275635 -44 35 C-43.34 35.66 -42.68 36.32 -42 37 C-41.68115234 39.98095703 -41.68115234 39.98095703 -41.5859375 43.7578125 C-41.56657135 44.42086395 -41.5472052 45.08391541 -41.5272522 45.76705933 C-41.46744046 47.88624177 -41.42106612 50.0054785 -41.375 52.125 C-41.33682155 53.56122169 -41.29776989 54.99742045 -41.2578125 56.43359375 C-41.16173875 59.95551936 -41.07771358 63.47761608 -41 67 C-40.67 66.67 -40.34 66.34 -40 66 C-38.03630847 65.9059933 -36.06920801 65.88256619 -34.10327148 65.88647461 C-32.84203964 65.88655014 -31.5808078 65.88662567 -30.28135681 65.88670349 C-28.89460206 65.8918109 -27.50784771 65.89702691 -26.12109375 65.90234375 C-24.71004791 65.90420799 -23.29900143 65.90563186 -21.88795471 65.90663147 C-18.16759465 65.91045621 -14.4472734 65.9202861 -10.72692871 65.93133545 C-6.93319219 65.94155052 -3.13944942 65.94612929 0.65429688 65.95117188 C8.10288231 65.96190842 15.55143572 65.9789843 23 66 C24.10647808 68.21295616 24.19588368 69.54672699 24.25 72 C24.27578125 72.70125 24.3015625 73.4025 24.328125 74.125 C24.21984375 74.74375 24.1115625 75.3625 24 76 C20.57181387 78.28545742 19.32228607 78.25257598 15.29101562 78.25878906 C14.11970093 78.26509338 12.94838623 78.27139771 11.74157715 78.27789307 C9.84309021 78.27182037 9.84309021 78.27182037 7.90625 78.265625 C5.95893982 78.26849518 5.95893982 78.26849518 3.97229004 78.27142334 C1.22513062 78.2743711 -1.52189868 78.27008825 -4.26904297 78.26074219 C-7.78983671 78.2493477 -11.31032553 78.25590905 -14.83110809 78.26788712 C-18.18951317 78.27685297 -21.54783626 78.27057503 -24.90625 78.265625 C-26.17190796 78.26967346 -27.43756592 78.27372192 -28.74157715 78.27789307 C-29.91289185 78.27158875 -31.08420654 78.26528442 -32.29101562 78.25878906 C-33.32343384 78.25719788 -34.35585205 78.25560669 -35.41955566 78.25396729 C-38 78 -38 78 -41 76 C-41.01458252 76.59014893 -41.02916504 77.18029785 -41.04418945 77.78833008 C-41.11868844 80.46371229 -41.21533995 83.13784892 -41.3125 85.8125 C-41.33505859 86.74126953 -41.35761719 87.67003906 -41.38085938 88.62695312 C-41.41630859 89.51962891 -41.45175781 90.41230469 -41.48828125 91.33203125 C-41.51446533 92.15421143 -41.54064941 92.9763916 -41.56762695 93.82348633 C-42.09131008 96.4596439 -42.8906829 97.37863998 -45 99 C-47.72507798 99.39078556 -50.23121956 99.13616953 -53 99 C-54.95074429 95.71983539 -55.25259284 93.26114952 -55.25878906 89.46875 C-55.26509338 88.36080078 -55.27139771 87.25285156 -55.27789307 86.11132812 C-55.2738446 84.91958984 -55.26979614 83.72785156 -55.265625 82.5 C-55.26753845 81.27216797 -55.2694519 80.04433594 -55.27142334 78.77929688 C-55.2727842 76.18359166 -55.26909466 73.58787963 -55.26074219 70.9921875 C-55.25004163 67.01546972 -55.26064118 63.03920371 -55.2734375 59.0625 C-55.27211589 56.54166567 -55.26955346 54.02083162 -55.265625 51.5 C-55.26967346 50.30826172 -55.27372192 49.11652344 -55.27789307 47.88867188 C-55.27158875 46.78072266 -55.26528442 45.67277344 -55.25878906 44.53125 C-55.25719788 43.55736328 -55.25560669 42.58347656 -55.25396729 41.58007812 C-54.99236623 38.92244777 -54.35476609 37.2780309 -53 35 C-53.55985596 34.97494385 -54.11971191 34.9498877 -54.6965332 34.92407227 C-57.23541305 34.80796255 -59.77393553 34.6853042 -62.3125 34.5625 C-63.63411133 34.50352539 -63.63411133 34.50352539 -64.98242188 34.44335938 C-65.82998047 34.40146484 -66.67753906 34.35957031 -67.55078125 34.31640625 C-68.33106689 34.27974854 -69.11135254 34.24309082 -69.9152832 34.20532227 C-72 34 -72 34 -75 33 C-75.02688151 31.35425434 -75.04634123 29.70838587 -75.0625 28.0625 C-75.07410156 27.14597656 -75.08570312 26.22945312 -75.09765625 25.28515625 C-75 23 -75 23 -74 22 C-72.07782922 21.89554443 -70.15180181 21.86144863 -68.22680664 21.85473633 C-66.99205093 21.84835648 -65.75729523 21.84197662 -64.48512268 21.83540344 C-63.12680093 21.83387488 -61.76847866 21.83276086 -60.41015625 21.83203125 C-59.02632105 21.8288203 -57.6424862 21.82545635 -56.25865173 21.82194519 C-53.35414849 21.81594776 -50.44967502 21.81410591 -47.54516602 21.81469727 C-43.81797854 21.81479891 -40.09098147 21.80114728 -36.36383915 21.78392506 C-33.50458392 21.7728222 -30.64537497 21.77077753 -27.78610039 21.77130699 C-26.41174094 21.77012426 -25.03738039 21.76568612 -23.66304207 21.75797462 C-21.74291548 21.74821002 -19.82273338 21.75230785 -17.90258789 21.75708008 C-16.26163902 21.75494255 -16.26163902 21.75494255 -14.58753967 21.75276184 C-12 22 -12 22 -10 24 C-9.98541748 23.37955811 -9.97083496 22.75911621 -9.95581055 22.11987305 C-9.88133412 19.30845367 -9.78467436 16.49822251 -9.6875 13.6875 C-9.66494141 12.71103516 -9.64238281 11.73457031 -9.61914062 10.72851562 C-9.5659668 9.32182617 -9.5659668 9.32182617 -9.51171875 7.88671875 C-9.48553467 7.02264404 -9.45935059 6.15856934 -9.43237305 5.26831055 C-8.41747621 -0.05602967 -4.93296174 -0.71939025 0 0 Z " fill="#2F8D8C" transform="translate(75,0)"/>
<path d="M0 0 C5.52029199 4.3533185 8.77198275 10.32667439 9.94140625 17.22265625 C10.53916086 25.20967523 9.98725277 33.06962019 5.125 39.67578125 C0.22341928 45.26485641 -5.59575349 47.94621167 -12.91015625 48.95703125 C-20.58549653 49.32325027 -27.96497155 46.48626953 -33.875 41.67578125 C-39.93015973 34.10683159 -40.64530222 26.05390507 -39.875 16.67578125 C-38.52014176 9.30945117 -35.15619834 3.65324018 -28.9765625 -0.64453125 C-20.04368177 -5.39323736 -8.6918055 -5.07498512 0 0 Z M-25.6875 10.67578125 C-28.94674198 16.16503091 -28.29304616 22.50389975 -27.875 28.67578125 C-26.3040396 33.38866244 -24.22586836 36.21659479 -19.875 38.67578125 C-15.21458835 39.5199963 -11.79935142 39.10372172 -7.5 37.11328125 C-2.72283557 32.67734285 -1.70827914 28.54481466 -1.4375 22.23828125 C-1.60303306 17.00599705 -2.58110336 12.82365109 -5.875 8.67578125 C-12.61877709 3.98445806 -20.03707837 4.44083325 -25.6875 10.67578125 Z " fill="#319492" transform="translate(154.875,24.32421875)"/>
<path d="M0 0 C7.75146484 -0.13916016 7.75146484 -0.13916016 9.98828125 1.11328125 C11.46121259 3.86009916 11.28724002 6.09555951 11.1875 9.1875 C11.16042969 10.27417969 11.13335937 11.36085938 11.10546875 12.48046875 C11.07066406 13.31191406 11.03585937 14.14335938 11 15 C11.66 14.67 12.32 14.34 13 14 C18.85475711 13.50671245 24.18984281 13.14255712 29.5625 15.6875 C35.11215026 20.95255282 38.0023209 25.55802245 38.3125 33.3125 C38.14012543 39.00086086 37.17084817 44.31228322 33.5234375 48.828125 C28.6643901 53.3987358 23.92031042 54.95987986 17.328125 55.02734375 C10.97996959 54.6853851 6.42290332 53.31399647 1 50 C-0.20887291 47.58225419 -0.12059343 46.06668936 -0.11352539 43.36669922 C-0.11344986 42.40585419 -0.11337433 41.44500916 -0.11329651 40.45504761 C-0.10813522 39.41542877 -0.10297394 38.37580994 -0.09765625 37.3046875 C-0.0962413 36.24210724 -0.09482635 35.17952698 -0.09336853 34.08474731 C-0.08775834 30.68146991 -0.07520409 27.27825762 -0.0625 23.875 C-0.05748631 21.57161553 -0.05292318 19.26823003 -0.04882812 16.96484375 C-0.0377856 11.30987351 -0.02103752 5.65494141 0 0 Z M11 24 C11 30.6 11 37.2 11 44 C15.58414454 46.29207227 17.13881161 46.30210403 22 45 C25.58041224 41.89069463 26.73080641 38.79185138 27.09765625 34.05859375 C26.9291157 30.50575899 25.7840132 28.03282245 24 25 C19.03542902 21.15245749 16.87421699 21.6503132 11 24 Z " fill="#000000" transform="translate(324,18)"/>
<path d="M0 0 C4.2588598 1.54343641 6.97709499 3.88119764 10 7.1875 C11.47782725 11.34388915 11.7862606 15.64473298 11 20 C8.1043532 21.9304312 6.95289051 22.34500899 3.65625 22.81640625 C2.82222656 22.94080078 1.98820312 23.06519531 1.12890625 23.19335938 C0.26136719 23.31517578 -0.60617188 23.43699219 -1.5 23.5625 C-3.21907789 23.81154917 -4.93784407 24.0627621 -6.65625 24.31640625 C-7.41744141 24.42412354 -8.17863281 24.53184082 -8.96289062 24.64282227 C-11.19211822 24.9820185 -11.19211822 24.9820185 -14 26 C-9.91572254 30.25023356 -9.91572254 30.25023356 -4.1875 31.1875 C-0.67942059 31.1621251 1.75807838 30.35080068 5 29 C7.3125 29.375 7.3125 29.375 9 30 C9.75 32.25 9.75 32.25 10 35 C7.17540256 39.1192046 3.76002612 40.03185909 -1 41 C-7.9975481 41.64792112 -14.71701816 40.00401612 -20.375 35.75 C-25.1616814 30.73538139 -26.17246971 26.75944857 -26.375 20 C-26.18929582 14.04260982 -25.65746427 9.70667657 -21.3125 5.28125 C-14.5859338 -0.66055014 -8.94594216 -0.87205789 0 0 Z M-15 13 C-15.33 14.32 -15.66 15.64 -16 17 C-7.585 16.01 -7.585 16.01 1 15 C-0.47639003 9.93991361 -0.47639003 9.93991361 -4 8 C-9.52380815 7.1594205 -11.58855864 8.71133086 -15 13 Z " fill="#319493" transform="translate(242,32)"/>
<path d="M0 0 C0.74701172 -0.02900391 1.49402344 -0.05800781 2.26367188 -0.08789062 C7.55446192 -0.14827717 10.51186313 0.79065561 14.6875 4.3125 C17.92585248 7.71838658 18.04355168 10.20204353 17.98046875 14.828125 C17.9659668 16.70371094 17.9659668 16.70371094 17.95117188 18.6171875 C17.92603516 19.91914062 17.90089844 21.22109375 17.875 22.5625 C17.85469727 24.53863281 17.85469727 24.53863281 17.83398438 26.5546875 C17.79862551 29.80770321 17.74927033 33.059896 17.6875 36.3125 C16.40890059 36.96618606 15.12862922 37.61660252 13.84765625 38.265625 C13.13488525 38.62817383 12.42211426 38.99072266 11.68774414 39.36425781 C4.64567572 42.70264348 -2.89257112 41.6537968 -10.06640625 39.2734375 C-13.43221598 37.83345629 -14.75178718 36.64675012 -16.3125 33.3125 C-17.06707764 28.43985502 -17.0683403 24.6562161 -14.625 20.3125 C-8.2875443 14.83145723 -0.26875328 15.15337493 7.6875 15.3125 C6.90619929 12.81697516 6.90619929 12.81697516 5.6875 10.3125 C0.74016311 8.6633877 -3.67179531 9.04159686 -8.625 10.4375 C-9.841875 10.72625 -11.05875 11.015 -12.3125 11.3125 C-14.3125 9.3125 -14.3125 9.3125 -14.625 6.875 C-14.3125 4.3125 -14.3125 4.3125 -13 2.5625 C-9.09949003 -0.32676664 -4.63720057 0.05909771 0 0 Z M-6.3125 26.3125 C-5.73905063 29.17974686 -5.4510485 30.1739515 -3.3125 32.3125 C0.82747567 32.5096417 3.76453567 32.62015478 7.6875 31.3125 C7.6875 28.6725 7.6875 26.0325 7.6875 23.3125 C2.18383208 22.98875483 -1.74922206 22.77963966 -6.3125 26.3125 Z " fill="#000000" transform="translate(296.3125,31.6875)"/>
<path d="M0 0 C0.69029297 -0.01611328 1.38058594 -0.03222656 2.09179688 -0.04882812 C6.85011442 -0.05333838 10.07964824 0.71203207 14.0625 3.3125 C16.93706045 6.18281153 17.98884124 7.74394146 18.51660156 11.81762695 C18.4956543 13.13206787 18.47470703 14.44650879 18.453125 15.80078125 C18.44746521 16.50397995 18.44180542 17.20717865 18.43597412 17.9316864 C18.41369769 20.16350248 18.36352373 22.39367461 18.3125 24.625 C18.29242343 26.14385691 18.27417468 27.66273916 18.2578125 29.18164062 C18.21386357 32.89245545 18.14489921 36.6023171 18.0625 40.3125 C10.3125 40.4375 10.3125 40.4375 8.0625 39.3125 C7.02535478 36.20106433 6.86218139 33.81781904 6.74609375 30.55078125 C6.70419922 29.43251953 6.66230469 28.31425781 6.61914062 27.16210938 C6.57982422 25.99486328 6.54050781 24.82761719 6.5 23.625 C6.45681641 22.44615234 6.41363281 21.26730469 6.36914062 20.05273438 C6.26298824 17.13944117 6.16093758 14.22606243 6.0625 11.3125 C1.45340008 8.55524064 1.45340008 8.55524064 -6.9375 10.3125 C-6.9375 20.2125 -6.9375 30.1125 -6.9375 40.3125 C-14.9375 40.3125 -14.9375 40.3125 -16.90820312 39.22998047 C-19.2361218 34.89329326 -18.45430738 29.37298639 -18.43847656 24.54345703 C-18.43750614 22.45074007 -18.47908021 20.3617167 -18.5234375 18.26953125 C-18.52864658 16.93229928 -18.53133266 15.59505462 -18.53125 14.2578125 C-18.53833984 13.04625488 -18.54542969 11.83469727 -18.55273438 10.58642578 C-17.76861992 6.4138167 -16.16806628 4.97202339 -12.9375 2.3125 C-8.78730008 -0.00405341 -4.65154232 -0.0215949 0 0 Z " fill="#319492" transform="translate(189.9375,31.6875)"/>
<path d="M0 0 C2.63223267 -0.36076355 2.63223267 -0.36076355 6.01025391 -0.34057617 C7.27141022 -0.34034958 8.53256653 -0.34012299 9.8319397 -0.33988953 C11.21348421 -0.32456844 12.59502513 -0.30892044 13.9765625 -0.29296875 C15.38617503 -0.28737433 16.79579338 -0.2831035 18.20541382 -0.28010559 C21.91768464 -0.26864454 25.629604 -0.23916704 29.34173584 -0.20599365 C33.12881719 -0.1753196 36.91595526 -0.16160599 40.703125 -0.14648438 C48.135577 -0.11429811 55.56773928 -0.0630871 63 0 C64.10647808 2.21295616 64.19588368 3.54672699 64.25 6 C64.27578125 6.70125 64.3015625 7.4025 64.328125 8.125 C64.21984375 8.74375 64.1115625 9.3625 64 10 C60.57950911 12.28032726 59.32851911 12.2566582 55.30688477 12.2746582 C54.13879776 12.28419022 52.97071075 12.29372223 51.76722717 12.30354309 C50.50470627 12.30263168 49.24218536 12.30172028 47.94140625 12.30078125 C45.99765358 12.30720894 45.99765358 12.30720894 44.01463318 12.31376648 C41.27167674 12.32122641 38.52884901 12.32093921 35.78588867 12.31567383 C32.27406193 12.30988041 28.76276281 12.32680742 25.25102329 12.3500185 C21.89779548 12.36831009 18.5446837 12.3645703 15.19140625 12.36328125 C13.93090958 12.372491 12.6704129 12.38170074 11.37171936 12.39118958 C9.61486061 12.38184639 9.61486061 12.38184639 7.82250977 12.37231445 C6.27721336 12.37325859 6.27721336 12.37325859 4.70069885 12.3742218 C1.59080502 11.94329998 0.20595675 11.21220391 -2 9 C-2.51020728 4.91834173 -2.31361802 3.47042703 0 0 Z " fill="#201B1C" transform="translate(35,66)"/>
<path d="M0 0 C3 0.4375 3 0.4375 4.66323853 2.11340332 C6.30509574 4.96794017 6.38028137 6.77735466 6.38818359 10.06054688 C6.40236832 11.75250183 6.40236832 11.75250183 6.4168396 13.4786377 C6.41076691 14.69224976 6.40469421 15.90586182 6.3984375 17.15625 C6.40274277 19.03129211 6.40274277 19.03129211 6.40713501 20.94421387 C6.40917667 23.58731251 6.40514883 26.2295789 6.39111328 28.87255859 C6.37402112 32.25548306 6.38386578 35.63769346 6.40183067 39.02059174 C6.41529505 42.25333657 6.4058602 45.48599584 6.3984375 48.71875 C6.40754654 50.53916809 6.40754654 50.53916809 6.4168396 52.3963623 C6.40738312 53.52433228 6.39792664 54.65230225 6.38818359 55.81445312 C6.38579681 56.80610474 6.38341003 57.79775635 6.38095093 58.81945801 C5.93648596 61.87399303 5.16366798 63.25735668 3 65.4375 C-0.05782565 65.88343291 -2.01638942 66.08195956 -4.65332031 64.35424805 C-6.70737368 61.43068513 -6.45807348 58.87288196 -6.546875 55.33203125 C-6.5677417 54.62358566 -6.5886084 53.91514008 -6.61010742 53.18522644 C-6.67279134 50.87355253 -6.7127216 48.56221348 -6.75 46.25 C-6.78401588 44.66340794 -6.81819634 43.0768194 -6.85253906 41.49023438 C-7.03228388 32.13670055 -7.058507 22.78893482 -6.75 13.4375 C-6.72389648 12.45499268 -6.69779297 11.47248535 -6.67089844 10.46020508 C-6.60950684 9.11865356 -6.60950684 9.11865356 -6.546875 7.75 C-6.51432617 6.98300781 -6.48177734 6.21601562 -6.44824219 5.42578125 C-5.58770357 1.60866443 -3.74055775 0.54549801 0 0 Z " fill="#211E1E" transform="translate(72,-0.4375)"/>
<path d="M0 0 C1.45792884 -0.05399736 2.91642712 -0.09279177 4.375 -0.125 C5.18710937 -0.14820312 5.99921875 -0.17140625 6.8359375 -0.1953125 C9 0 9 0 11 2 C11.24723816 4.16993713 11.24723816 4.16993713 11.24291992 6.89282227 C11.24599655 7.91050186 11.24907318 8.92818146 11.25224304 9.97669983 C11.24505753 11.07880295 11.23787201 12.18090607 11.23046875 13.31640625 C11.22978142 15.00660133 11.22978142 15.00660133 11.2290802 16.73094177 C11.22605536 19.11580456 11.21816221 21.50066533 11.20581055 23.88549805 C11.18755882 27.55068909 11.18530077 31.21562765 11.18554688 34.88085938 C11.18063173 37.19271053 11.17480342 39.50455997 11.16796875 41.81640625 C11.16685593 42.9205336 11.1657431 44.02466095 11.16459656 45.1622467 C11.15821671 46.17677414 11.15183685 47.19130157 11.14526367 48.23657227 C11.14145187 49.13432877 11.13764008 50.03208527 11.13371277 50.95704651 C11 53 11 53 10 54 C3.53846154 54.35897436 3.53846154 54.35897436 0 52 C-0.36076355 49.78536987 -0.36076355 49.78536987 -0.34057617 46.99951172 C-0.34034958 45.95858368 -0.34012299 44.91765564 -0.33988953 43.84518433 C-0.32440567 42.71807037 -0.30892181 41.59095642 -0.29296875 40.4296875 C-0.28660149 38.70264084 -0.28660149 38.70264084 -0.28010559 36.94070435 C-0.26327052 33.25190145 -0.22560874 29.56363864 -0.1875 25.875 C-0.17245944 23.37891412 -0.15876995 20.88281971 -0.14648438 18.38671875 C-0.1133512 12.25762725 -0.06310389 6.1288522 0 0 Z " fill="#000000" transform="translate(261,18)"/>
<path d="M0 0 C19.47 0 38.94 0 59 0 C59 0.33 59 0.66 59 1 C43.655 1.495 43.655 1.495 28 2 C27.67 2.66 27.34 3.32 27 4 C26.23429687 3.68289062 25.46859375 3.36578125 24.6796875 3.0390625 C19.81623947 1.66573216 15.15574529 1.53860147 10.125 1.375 C9.15046875 1.33632813 8.1759375 1.29765625 7.171875 1.2578125 C4.7814328 1.16406967 2.39098756 1.0783617 0 1 C0 0.67 0 0.34 0 0 Z " fill="#24625C" transform="translate(3,33)"/>
</svg>
