<?xml version="1.0" encoding="UTF-8"?>
<svg version="1.1" xmlns="http://www.w3.org/2000/svg" width="99" height="99">
<path d="M0 0 C32.67 0 65.34 0 99 0 C99 32.67 99 65.34 99 99 C66.33 99 33.66 99 0 99 C0 66.33 0 33.66 0 0 Z " fill="#348E88" transform="translate(0,0)"/>
<path d="M0 0 C9.57 0 19.14 0 29 0 C29 25.74 29 51.48 29 78 C25.85391711 79.0486943 23.61026473 79.13922156 20.30688477 79.16113281 C18.55475426 79.17554413 18.55475426 79.17554413 16.76722717 79.19024658 C15.50470627 79.19449646 14.24218536 79.19874634 12.94140625 79.203125 C10.99765358 79.21167511 10.99765358 79.21167511 9.01463318 79.22039795 C6.27171436 79.23089552 3.52882475 79.2367466 0.78588867 79.24023438 C-2.7259026 79.24572282 -6.23730688 79.26976296 -9.74897671 79.29820633 C-13.10217518 79.32132395 -16.45531969 79.32328132 -19.80859375 79.328125 C-21.06909042 79.3404718 -22.3295871 79.3528186 -23.62828064 79.36553955 C-24.79951981 79.36253845 -25.97075897 79.35953735 -27.17749023 79.35644531 C-28.20768784 79.36009094 -29.23788544 79.36373657 -30.29930115 79.36749268 C-33.41149951 78.94400595 -34.79166922 78.21070645 -37 76 C-37.55311989 71.66722755 -36.99987258 69.99974516 -35 66 C-24.11 65.67 -13.22 65.34 -2 65 C-2.66 63.68 -3.32 62.36 -4 61 C-4.26742554 58.38195801 -4.26742554 58.38195801 -4.29052734 55.37695312 C-4.30328705 54.24898315 -4.31604675 53.12101318 -4.32919312 51.9588623 C-4.33141876 50.74525024 -4.33364441 49.53163818 -4.3359375 48.28125 C-4.3425943 47.03122192 -4.3492511 45.78119385 -4.35610962 44.49328613 C-4.36623475 41.85035958 -4.37179192 39.20784448 -4.37060547 36.56494141 C-4.37040198 33.18191838 -4.39773952 29.79973266 -4.43214989 26.41690826 C-4.45975368 23.18422013 -4.45856742 19.95154003 -4.4609375 16.71875 C-4.47530853 15.50513794 -4.48967957 14.29152588 -4.50448608 13.0411377 C-4.49833282 11.91316772 -4.49217957 10.78519775 -4.48583984 9.62304688 C-4.48868988 8.63139526 -4.49153992 7.63974365 -4.49447632 6.61804199 C-4 4 -4 4 0 0 Z " fill="#1E1E1A" transform="translate(70,0)"/>
<path d="M0 0 C23.1 0 46.2 0 70 0 C69.34 0.33 68.68 0.66 68 1 C65.56643837 8.3006849 66.3842998 16.31400391 66 24 C44.55 23.67 23.1 23.34 1 23 C1 26.63 1 30.26 1 34 C7.93 34.66 14.86 35.32 22 36 C21.67 37.32 21.34 38.64 21 40 C20.90931709 41.84731827 20.87211174 43.69757706 20.87060547 45.54711914 C20.86745331 46.65829605 20.86430115 47.76947296 20.86105347 48.9143219 C20.8630777 50.10919724 20.86510193 51.30407257 20.8671875 52.53515625 C20.86623077 53.76535995 20.86527405 54.99556366 20.86428833 56.26304626 C20.86360795 58.86294608 20.86545237 61.46284759 20.86962891 64.06274414 C20.87321214 66.73111323 20.87418921 69.39928034 20.86962891 72.06762695 C20.86346473 75.91099084 20.8641962 79.75428969 20.8671875 83.59765625 C20.86516327 84.79455582 20.86313904 85.99145538 20.86105347 87.22462463 C20.86420563 88.33264938 20.86735779 89.44067413 20.87060547 90.58227539 C20.87140106 91.55838272 20.87219666 92.53449005 20.87301636 93.54017639 C20.89735485 96.13689525 20.89735485 96.13689525 22 99 C14.74 99 7.48 99 0 99 C0 66.33 0 33.66 0 0 Z " fill="#FDFEFD" transform="translate(0,0)"/>
<path d="M0 0 C7.59 0 15.18 0 23 0 C23 21.78 23 43.56 23 66 C15.41 66 7.82 66 0 66 C0.66 64.35 1.32 62.7 2 61 C2.29914895 58.27026316 2.29914895 58.27026316 2.25878906 55.37109375 C2.26509338 54.26644775 2.27139771 53.16180176 2.27789307 52.02368164 C2.2738446 50.8402417 2.26979614 49.65680176 2.265625 48.4375 C2.26753845 47.21345459 2.2694519 45.98940918 2.27142334 44.72827148 C2.27278311 42.14273879 2.26910124 39.55719923 2.26074219 36.97167969 C2.25004008 33.01481791 2.26064491 29.05841016 2.2734375 25.1015625 C2.27211587 22.58854066 2.2695534 20.07551911 2.265625 17.5625 C2.26967346 16.37906006 2.27372192 15.19562012 2.27789307 13.97631836 C2.27158875 12.87167236 2.26528442 11.76702637 2.25878906 10.62890625 C2.25719788 9.66025635 2.25560669 8.69160645 2.25396729 7.69360352 C2.0832193 4.52510882 2.0832193 4.52510882 0 0 Z " fill="#FEFEFE" transform="translate(76,0)"/>
<path d="M0 0 C0.99 0.33 1.98 0.66 3 1 C5.00904644 1.0890016 7.02096968 1.11760452 9.03198242 1.11352539 C10.89357246 1.11341209 10.89357246 1.11341209 12.79277039 1.11329651 C14.14700358 1.10818991 15.50123637 1.10297391 16.85546875 1.09765625 C18.24123585 1.09579083 19.62700361 1.09436751 21.01277161 1.09336853 C24.6574791 1.0895531 28.30214665 1.07973113 31.94683838 1.06866455 C35.66702738 1.0584295 39.38722285 1.05386642 43.10742188 1.04882812 C50.40496822 1.03810798 57.70247342 1.02051907 65 1 C65 7.93 65 14.86 65 22 C42.89 22 20.78 22 -2 22 C-1.505 20.515 -1.505 20.515 -1 19 C-0.85426942 17.52034074 -0.75336732 16.03596157 -0.68359375 14.55078125 C-0.64169922 13.70322266 -0.59980469 12.85566406 -0.55664062 11.98242188 C-0.49766602 10.66081055 -0.49766602 10.66081055 -0.4375 9.3125 C-0.39431641 8.41982422 -0.35113281 7.52714844 -0.30664062 6.60742188 C-0.20064647 4.40509892 -0.09857949 2.20266527 0 0 Z " fill="#FEFEFE" transform="translate(34,77)"/>
<path d="M0 0 C0.029729 1.23302856 0.029729 1.23302856 0.06005859 2.4909668 C0.15544603 6.22346126 0.26507089 9.9554067 0.375 13.6875 C0.4059375 14.98107422 0.436875 16.27464844 0.46875 17.60742188 C0.52675781 19.47817383 0.52675781 19.47817383 0.5859375 21.38671875 C0.6173584 22.53358154 0.6487793 23.68044434 0.68115234 24.86206055 C0.89549735 28.40484543 0.89549735 28.40484543 3 33 C-14.325 33.495 -14.325 33.495 -32 34 C-32.4375 19.625 -32.4375 19.625 -32.56811523 15.09228516 C-32.60622314 13.91972168 -32.64433105 12.7471582 -32.68359375 11.5390625 C-32.72025146 10.33459473 -32.75690918 9.13012695 -32.79467773 7.88916016 C-32.81052987 5.06003633 -32.81052987 5.06003633 -34 3 C-32.65252686 2.91697632 -32.65252686 2.91697632 -31.27783203 2.83227539 C-27.9491461 2.62512171 -24.62075248 2.41410161 -21.29248047 2.20043945 C-19.85117241 2.10871395 -18.40976497 2.01853661 -16.96826172 1.92993164 C-14.89783171 1.80239999 -12.82782145 1.66932845 -10.7578125 1.53515625 C-9.5114502 1.456604 -8.26508789 1.37805176 -6.98095703 1.29711914 C-4.35592602 1.035476 -2.55257662 0 0 0 Z " fill="#FBFDFB" transform="translate(66,33)"/>
<path d="M0 0 C8.17963488 -0.02314367 16.35925613 -0.04092544 24.53891563 -0.05181217 C28.33682789 -0.05703656 32.1347178 -0.06412617 35.93261719 -0.07543945 C39.59600673 -0.08628408 43.25937473 -0.09228019 46.92277908 -0.09487724 C48.32225509 -0.09672864 49.72172988 -0.10034382 51.12119675 -0.10573006 C53.07736822 -0.11296126 55.03356126 -0.11340823 56.98974609 -0.11352539 C58.66186661 -0.11685631 58.66186661 -0.11685631 60.36776733 -0.12025452 C63 0 63 0 65 1 C65 3.97 65 6.94 65 10 C60.66641418 12.16679291 58.59314121 12.23437001 53.828125 12.1953125 C53.1457074 12.1924826 52.46328979 12.18965271 51.76019287 12.18673706 C49.58994693 12.17558098 47.42012029 12.15048557 45.25 12.125 C43.77474556 12.11496426 42.29948463 12.10583944 40.82421875 12.09765625 C37.21601058 12.07565687 33.60804625 12.04115883 30 12 C30 12.66 30 13.32 30 14 C29.06800781 13.8453125 28.13601562 13.690625 27.17578125 13.53125 C21.25311309 12.68408921 15.27053676 12.61256524 9.29882812 12.39453125 C8.38939453 12.35714844 7.47996094 12.31976563 6.54296875 12.28125 C5.71821045 12.25095703 4.89345215 12.22066406 4.04370117 12.18945312 C2 12 2 12 0 11 C0 7.37 0 3.74 0 0 Z " fill="#318B86" transform="translate(1,23)"/>
<path d="M0 0 C2.67019653 -0.36076355 2.67019653 -0.36076355 6.10205078 -0.34057617 C8.02381638 -0.34023628 8.02381638 -0.34023628 9.98440552 -0.33988953 C11.3880447 -0.32456841 12.79168034 -0.3089204 14.1953125 -0.29296875 C15.62734535 -0.28737438 17.05938393 -0.28310353 18.49142456 -0.28010559 C22.26287656 -0.26864413 26.03398265 -0.23916624 29.80529785 -0.20599365 C33.65270304 -0.1753205 37.50016406 -0.16160618 41.34765625 -0.14648438 C48.8985953 -0.11429738 56.44924921 -0.06308584 64 0 C64 3.63 64 7.26 64 11 C60.85391711 12.0486943 58.61026473 12.13922156 55.30688477 12.16113281 C54.13879776 12.17074036 52.97071075 12.1803479 51.76722717 12.19024658 C50.50470627 12.19449646 49.24218536 12.19874634 47.94140625 12.203125 C45.99765358 12.21167511 45.99765358 12.21167511 44.01463318 12.22039795 C41.27171436 12.23089552 38.52882475 12.2367466 35.78588867 12.24023438 C32.2740974 12.24572282 28.76269312 12.26976296 25.25102329 12.29820633 C21.89782482 12.32132395 18.54468031 12.32328132 15.19140625 12.328125 C13.30066124 12.3466452 13.30066124 12.3466452 11.37171936 12.36553955 C10.20048019 12.36253845 9.02924103 12.35953735 7.82250977 12.35644531 C6.79231216 12.36009094 5.76211456 12.36373657 4.70069885 12.36749268 C1.58718227 11.94382658 0.20699194 11.21456105 -2 9 C-2.51020728 4.91834173 -2.31361802 3.47042703 0 0 Z " fill="#1D1B18" transform="translate(35,67)"/>
<path d="M0 0 C0.33 0 0.66 0 1 0 C1 4.29 1 8.58 1 13 C-20.45 12.67 -41.9 12.34 -64 12 C-64 15.63 -64 19.26 -64 23 C-53.605 23.99 -53.605 23.99 -43 25 C-43.33 26.32 -43.66 27.64 -44 29 C-44.1128341 30.83211501 -44.17585564 32.66757995 -44.20532227 34.50292969 C-44.22526749 35.60376892 -44.24521271 36.70460815 -44.26576233 37.83880615 C-44.28247482 39.02121887 -44.29918732 40.20363159 -44.31640625 41.421875 C-44.33718735 42.63699768 -44.35796844 43.85212036 -44.37937927 45.10406494 C-44.44476828 48.98598573 -44.50371051 52.8679742 -44.5625 56.75 C-44.60569532 59.38151742 -44.64930994 62.01302799 -44.69335938 64.64453125 C-44.80043883 71.0962826 -44.90222514 77.54810129 -45 84 C-45.33 84 -45.66 84 -46 84 C-46 68.49 -46 52.98 -46 37 C-46.66 36.67 -47.32 36.34 -48 36 C-48.33 34.68 -48.66 33.36 -49 32 C-54.28 31.67 -59.56 31.34 -65 31 C-65 24.07 -65 17.14 -65 10 C-43.88 10 -22.76 10 -1 10 C-0.67 6.7 -0.34 3.4 0 0 Z " fill="#F5FBF7" transform="translate(65,11)"/>
<path d="M0 0 C0.33 0 0.66 0 1 0 C1 4.29 1 8.58 1 13 C-20.45 12.67 -41.9 12.34 -64 12 C-64 15.63 -64 19.26 -64 23 C-63.34 23.33 -62.68 23.66 -62 24 C-62.33 24.33 -62.66 24.66 -63 25 C-62.34 25.33 -61.68 25.66 -61 26 C-61 26.66 -61 27.32 -61 28 C-62.32 27.34 -63.64 26.68 -65 26 C-65 20.72 -65 15.44 -65 10 C-43.88 10 -22.76 10 -1 10 C-0.67 6.7 -0.34 3.4 0 0 Z " fill="#BBE1DE" transform="translate(65,11)"/>
<path d="M0 0 C0.4125 0.495 0.825 0.99 1.25 1.5 C3.12202338 3.43386092 3.12202338 3.43386092 7 3 C7.66 3.33 8.32 3.66 9 4 C8.34 5.98 7.68 7.96 7 10 C17.89 10.495 17.89 10.495 29 11 C29 11.33 29 11.66 29 12 C7.88 12 -13.24 12 -35 12 C-35 11.67 -35 11.34 -35 11 C-24.11 10.67 -13.22 10.34 -2 10 C-2.495 9.01 -2.495 9.01 -3 8 C-2.34 8 -1.68 8 -1 8 C-1.20625 7.236875 -1.4125 6.47375 -1.625 5.6875 C-2 3 -2 3 0 0 Z " fill="#444742" transform="translate(70,55)"/>
<path d="M0 0 C2.31 0 4.62 0 7 0 C6.01 0.33 5.02 0.66 4 1 C4.33 4.63 4.66 8.26 5 12 C5.99 12 6.98 12 8 12 C8 17.61 8 23.22 8 29 C6.02 29.66 4.04 30.32 2 31 C1.97494385 30.13197754 1.9498877 29.26395508 1.92407227 28.36962891 C1.82900516 25.15286837 1.72976797 21.93627151 1.62768555 18.71972656 C1.58434154 17.3268741 1.54266604 15.93396869 1.50268555 14.54101562 C1.44497068 12.54023349 1.38078131 10.53964141 1.31640625 8.5390625 C1.27974854 7.33459473 1.24309082 6.13012695 1.20532227 4.88916016 C1.18947013 2.06003633 1.18947013 2.06003633 0 0 Z " fill="#E9F7F5" transform="translate(32,36)"/>
<path d="M0 0 C2.31 0.66 4.62 1.32 7 2 C6.67 7.61 6.34 13.22 6 19 C5.34 19 4.68 19 4 19 C4 19.99 4 20.98 4 22 C2.02 22 0.04 22 -2 22 C-1.505 20.515 -1.505 20.515 -1 19 C-0.85426942 17.52034074 -0.75336732 16.03596157 -0.68359375 14.55078125 C-0.64169922 13.70322266 -0.59980469 12.85566406 -0.55664062 11.98242188 C-0.49766602 10.66081055 -0.49766602 10.66081055 -0.4375 9.3125 C-0.39431641 8.41982422 -0.35113281 7.52714844 -0.30664062 6.60742188 C-0.20064647 4.40509892 -0.09857949 2.20266527 0 0 Z " fill="#E9F5F1" transform="translate(34,77)"/>
<path d="M0 0 C0 0.66 0 1.32 0 2 C-10.23 2 -20.46 2 -31 2 C-31 2.66 -31 3.32 -31 4 C-31.93972656 3.84660156 -32.87945312 3.69320312 -33.84765625 3.53515625 C-38.69295331 2.84297096 -43.5517789 2.65206371 -48.4375 2.4375 C-49.35982422 2.39431641 -50.28214844 2.35113281 -51.23242188 2.30664062 C-53.48816163 2.20145069 -55.74399499 2.09930893 -58 2 C-58 1.34 -58 0.68 -58 0 C-56.16888672 0.01740234 -56.16888672 0.01740234 -54.30078125 0.03515625 C-43.60319909 0.1437425 -43.60319909 0.1437425 -32.9375 -0.5625 C-22.03137864 -1.59030201 -10.91857257 -0.53914349 0 0 Z " fill="#266B66" transform="translate(62,33)"/>
<path d="M0 0 C1.32 0 2.64 0 4 0 C3.83923477 0.54650208 3.67846954 1.09300415 3.51283264 1.65606689 C2.92945075 4.32244968 2.83850442 6.77315297 2.79467773 9.50292969 C2.77473251 10.60376892 2.75478729 11.70460815 2.73423767 12.83880615 C2.71752518 14.02121887 2.70081268 15.20363159 2.68359375 16.421875 C2.66281265 17.63699768 2.64203156 18.85212036 2.62062073 20.10406494 C2.55523172 23.98598573 2.49628949 27.8679742 2.4375 31.75 C2.39430468 34.38151742 2.35069006 37.01302799 2.30664062 39.64453125 C2.19956117 46.0962826 2.09777486 52.54810129 2 59 C1.67 59 1.34 59 1 59 C0.67 39.53 0.34 20.06 0 0 Z " fill="#ECFEFD" transform="translate(18,36)"/>
<path d="M0 0 C0 5.94 0 11.88 0 18 C-0.33 18 -0.66 18 -1 18 C-1 13.38 -1 8.76 -1 4 C-7.6 3.67 -14.2 3.34 -21 3 C-21 2.67 -21 2.34 -21 2 C-19.19402344 1.90912109 -19.19402344 1.90912109 -17.3515625 1.81640625 C-15.77602923 1.73200268 -14.20050904 1.64735459 -12.625 1.5625 C-11.8309375 1.52318359 -11.036875 1.48386719 -10.21875 1.44335938 C-6.68012647 1.2484352 -3.35189233 0 0 0 Z " fill="#C4DAD6" transform="translate(66,33)"/>
<path d="M0 0 C0.33 0.66 0.66 1.32 1 2 C0.34 2 -0.32 2 -1 2 C-1.33 3.32 -1.66 4.64 -2 6 C-2.99 5.67 -3.98 5.34 -5 5 C-4.34 5 -3.68 5 -3 5 C-2.67 3.68 -2.34 2.36 -2 1 C-2.99 1 -3.98 1 -5 1 C-5.33 2.65 -5.66 4.3 -6 6 C-7.32 6 -8.64 6 -10 6 C-7.83322503 -0.036016 -6.28508493 -0.13663228 0 0 Z " fill="#383B36" transform="translate(76,0)"/>
<path d="M0 0 C3 0 3 0 5 1 C4.34 2.98 3.68 4.96 3 7 C2.34 6.67 1.68 6.34 1 6 C1 5.34 1 4.68 1 4 C0.01 4.33 -0.98 4.66 -2 5 C-1.34 3.35 -0.68 1.7 0 0 Z " fill="#262722" transform="translate(74,58)"/>
<path d="M0 0 C0.66 0.33 1.32 0.66 2 1 C2 1.99 2 2.98 2 4 C2.66 4.33 3.32 4.66 4 5 C2.68 6.32 1.36 7.64 0 9 C-1 8 -1 8 -1.125 5.0625 C-1 2 -1 2 0 0 Z " fill="#153132" transform="translate(34,68)"/>
<path d="M0 0 C0.99 0 1.98 0 3 0 C3.29296875 5.95703125 3.29296875 5.95703125 3 8 C2.01 8.99 1.02 9.98 0 11 C0 7.37 0 3.74 0 0 Z " fill="#FBFDFB" transform="translate(35,80)"/>
<path d="M0 0 C1.27875 -0.061875 2.5575 -0.12375 3.875 -0.1875 C4.95394531 -0.23970703 4.95394531 -0.23970703 6.0546875 -0.29296875 C6.69664063 -0.19628906 7.33859375 -0.09960938 8 0 C8.66 0.99 9.32 1.98 10 3 C8.35 3.33 6.7 3.66 5 4 C5.33 3.01 5.66 2.02 6 1 C4.02 1 2.04 1 0 1 C0 0.67 0 0.34 0 0 Z " fill="#549692" transform="translate(16,35)"/>
</svg>
